<svg xmlns="http://www.w3.org/2000/svg" xmlns:xlink="http://www.w3.org/1999/xlink" viewBox="0 0 82.76 82.76"><defs><style>.cls-1{mask:url(#mask);filter:url(#luminosity-noclip-2);}.cls-10,.cls-2,.cls-7{mix-blend-mode:multiply;}.cls-2{fill:url(#Degradado_sin_nombre_447);}.cls-3{isolation:isolate;}.cls-4{fill:url(#Degradado_sin_nombre_157);}.cls-5{mask:url(#mask-2);}.cls-6{opacity:0.5;fill:url(#Degradado_sin_nombre_314);}.cls-7{opacity:0.2;}.cls-8{fill:url(#Degradado_sin_nombre_291);}.cls-9{fill:url(#Degradado_sin_nombre_360);}.cls-10{opacity:0.3;}.cls-11{fill:url(#Degradado_sin_nombre_190);}.cls-12{fill:#d4d7e1;}.cls-13{fill:url(#Degradado_sin_nombre_364);}.cls-14{fill:url(#Degradado_sin_nombre_127);}.cls-15{fill:#ffffff;}.cls-16{filter:url(#luminosity-noclip);}</style><filter id="luminosity-noclip" x="4.13" y="-8314.07" width="58.82" height="32766" filterUnits="userSpaceOnUse" color-interpolation-filters="sRGB"><feFlood flood-color="#fff" result="bg"/><feBlend in="SourceGraphic" in2="bg"/></filter><mask id="mask" x="4.13" y="-8314.07" width="58.82" height="32766" maskUnits="userSpaceOnUse"><g class="cls-16"/></mask><linearGradient id="Degradado_sin_nombre_447" x1="4.13" y1="41.1" x2="62.95" y2="41.1" gradientUnits="userSpaceOnUse"><stop offset="0" stop-color="#fff"/><stop offset="0.84"/></linearGradient><linearGradient id="Degradado_sin_nombre_157" x1="-0.56" y1="37.3" x2="50.24" y2="37.3" gradientUnits="userSpaceOnUse"><stop offset="0" stop-color="#00a9fd"/><stop offset="1" stop-color="#9a00ff"/></linearGradient><filter id="luminosity-noclip-2" x="4.13" y="13.79" width="58.82" height="54.64" filterUnits="userSpaceOnUse" color-interpolation-filters="sRGB"><feFlood flood-color="#fff" result="bg"/><feBlend in="SourceGraphic" in2="bg"/></filter><mask id="mask-2" x="4.13" y="13.79" width="58.82" height="54.64" maskUnits="userSpaceOnUse"><g class="cls-1"><path class="cls-2" d="M57.24,15.08,26.77,13.79S7.36,22.22,5,28.33c-.67,1.76-2.84,15.86,3.83,26.05s16.8,15.78,25.75,13.56,15.05-4.32,23.64-22.11,2.85-26.55,2.85-26.55Z"/></g></mask><linearGradient id="Degradado_sin_nombre_314" x1="4.13" y1="41.1" x2="62.95" y2="41.1" gradientUnits="userSpaceOnUse"><stop offset="0" stop-color="#fff"/><stop offset="0.84" stop-color="#fff"/></linearGradient><linearGradient id="Degradado_sin_nombre_291" x1="65.49" y1="43.36" x2="8.07" y2="8.35" gradientUnits="userSpaceOnUse"><stop offset="0" stop-color="#a7b0c6"/><stop offset="0.46" stop-color="#fafafb"/><stop offset="1" stop-color="#acb4ca"/></linearGradient><linearGradient id="Degradado_sin_nombre_360" x1="70.67" y1="39.25" x2="9.73" y2="14.43" gradientUnits="userSpaceOnUse"><stop offset="0" stop-color="#bbc2d3"/><stop offset="0.14" stop-color="#939fba"/><stop offset="0.52" stop-color="#f2f4f7"/><stop offset="0.66" stop-color="#f2f4f7"/><stop offset="1" stop-color="#9da8c1"/></linearGradient><linearGradient id="Degradado_sin_nombre_190" x1="46.71" y1="82.68" x2="29.95" y2="33.5" gradientUnits="userSpaceOnUse"><stop offset="0" stop-color="#a8b1c7"/><stop offset="0.16" stop-color="#d4d7e2"/><stop offset="0.42" stop-color="#dadee8"/><stop offset="0.76" stop-color="#dfe3eb"/><stop offset="1" stop-color="#b6bdcf"/></linearGradient><radialGradient id="Degradado_sin_nombre_364" cx="-217.51" cy="-241.16" r="21.48" gradientTransform="translate(159.86 186.02) scale(0.49)" gradientUnits="userSpaceOnUse"><stop offset="0" stop-color="#b3b3b3"/><stop offset="1" stop-color="#4d4d4d"/></radialGradient><linearGradient id="Degradado_sin_nombre_127" x1="35.28" y1="80.94" x2="35.28" y2="33.2" gradientUnits="userSpaceOnUse"><stop offset="0" stop-color="#bbc2d3"/><stop offset="0.14" stop-color="#939fba"/><stop offset="0.32" stop-color="#dfe3eb"/><stop offset="0.66" stop-color="#f2f4f7"/><stop offset="1" stop-color="#9da8c1"/></linearGradient></defs><g class="cls-3"><g id="Capa_2" data-name="Capa 2"><g id="Layer_1" data-name="Layer 1"><path class="cls-4" d="M74.59,37.3a37.27,37.27,0,0,1-34,37.14c-1.09.1-2.2.15-3.31.15A37.3,37.3,0,0,1,0,37.3c0-.29,0-.58,0-.86v-.08A37.3,37.3,0,0,1,60.21,7.87,37.4,37.4,0,0,1,72.52,25a35,35,0,0,1,1.32,4.8A37.55,37.55,0,0,1,74.59,37.3Z"/><g class="cls-5"><path class="cls-6" d="M57.24,15.08,26.77,13.79S7.36,22.22,5,28.33c-.67,1.76-2.84,15.86,3.83,26.05s16.8,15.78,25.75,13.56,15.05-4.32,23.64-22.11,2.85-26.55,2.85-26.55Z"/></g><path class="cls-7" d="M57.39,68.72a37.1,37.1,0,0,1-12.18,5c-.14-.19-.29-.37-.43-.53-3.74-4.46-6.22-11.7-8-17.62a48.57,48.57,0,0,1-2-9C44,66.26,53.27,68.73,57.39,68.72Z"/><path class="cls-8" d="M74.34,25a23.28,23.28,0,0,1-.5,4.83C71.13,43,57.68,52.53,45.25,56.58c0,0-3.42-5.28-2.86-9.91s3.23-5.55,6.11-7.4,9.72-5.84,9.72-11.86-7.68-9.26-16.3-9.26S20.25,21.07,0,36.36A37,37,0,0,1,5.73,17.43,35.46,35.46,0,0,1,15.8,10.55,65.26,65.26,0,0,1,42.57,4.81,51.51,51.51,0,0,1,60.21,7.87C68,10.84,74.34,16.2,74.34,25Z"/><path class="cls-9" d="M64.89,12.21C58.26,8,48.76,6.62,42.57,6.62a63.27,63.27,0,0,0-26,5.59C9.12,15.49,4.51,19.49,2,32.64c15.21-11,28.31-16.31,39.92-16.31C52.76,16.33,60,20.78,60,27.41s-6.76,11-10,13l-.54.35c-.42.27-.83.52-1.23.76-2.3,1.39-3.69,2.24-4.07,5.34-.32,2.71,1,5.82,1.91,7.49C59.46,49.6,72.51,38.88,72.52,25v0C72.52,19.16,69.35,15,64.89,12.21Z"/><path class="cls-10" d="M58.22,27.41c0,6-6.85,10-9.72,11.86s-5.56,2.77-6.11,7.4,2.86,9.91,2.86,9.91-4.74-4.82-4.62-11.37,9.14-8.08,13-12.41,2.78-9-1.67-10.61S37.73,19,25.5,24A258,258,0,0,0,0,36.44v-.08L1,35.65,1.89,35l.92-.67.91-.66L4.63,33c.59-.42,1.19-.83,1.77-1.23l.87-.58.86-.57L9,30.06c.46-.3.92-.6,1.38-.88l.83-.51.73-.45c2.29-1.39,4.47-2.59,6.53-3.63l.73-.36c1.15-.57,2.26-1.09,3.34-1.56l1.21-.51c1.39-.58,2.72-1.08,4-1.5l.62-.21.11,0c.34-.12.68-.22,1-.32l.66-.2.58-.16.66-.18,1-.25,1.15-.26,1-.2.52-.09.42-.07c.92-.16,1.81-.27,2.65-.36l.35,0,.43,0,.79-.05c.77-.05,1.5-.06,2.21-.06C50.54,18.15,58.22,21.39,58.22,27.41Z"/><path class="cls-10" d="M74.59,37.3c0,.93,0,1.87-.1,2.79C68.12,56.42,45.25,56.58,45.25,56.58c12.43-4,25.88-13.59,28.59-26.75A37.55,37.55,0,0,1,74.59,37.3Z"/><path class="cls-10" d="M46.89,73.34c-.56.15-1.12.29-1.68.41-.14-.19-.29-.36-.43-.53-3.74-4.46-6.22-11.7-8-17.62-2.9-9.8-3.27-15.05,2.05-19.52,2.23-1.86,5.3-4.2,6-6.3,0,0,.43,3.06-4.63,7.52-3.46,3-4.26,4.6-3.43,10.38S40.78,65.87,46.89,73.34Z"/><path class="cls-11" d="M58.77,76.88q-.17.18-.33.33c-2.47,2.34-8.73,5.55-13.61,5.55-8,0-13.46-5-18.71-15.13a70,70,0,0,1-7.35-30.44c17.29-7.29,26.06-7.41,26.06-7.41-.68,2.1-3.75,4.44-6,6.3-5.33,4.47-5,9.72-2.06,19.52,1.76,5.92,4.24,13.16,8,17.62.41.49.84,1,1.33,1.62l.42.49A11.16,11.16,0,0,0,50.05,78c2.1,1,4.86,1.31,8.32-.86Z"/><path class="cls-12" d="M63,64.3c-1.09,4.73-4,13.11-10.59,13.09a9.18,9.18,0,0,1-6.23-2.68h0a16.86,16.86,0,0,1-1.42-1.49c.41.49.84,1,1.33,1.62h0l.42.49A11.16,11.16,0,0,0,50.05,78c2.1,1,4.86,1.31,8.32-.86l.4-.26h0c2-2.09,4.73-6.62,7.1-15.63A37.53,37.53,0,0,1,63,64.3Z"/><path class="cls-13" d="M63,64.3c-1.09,4.73-4,13.11-10.59,13.09a9.18,9.18,0,0,1-6.23-2.68c4.08,1,6.21-1.87,7.13-3.74A37.09,37.09,0,0,0,63,64.3Z"/><path class="cls-14" d="M44.83,80.94c-6.94,0-11.89-4.1-17.1-14.15a68.6,68.6,0,0,1-7.12-28.4,101.38,101.38,0,0,1,20.11-6.27c-.74.68-1.54,1.34-2.24,1.92l-.79.65c-6.07,5.1-5.65,11.22-2.63,21.43,1.78,6,4.34,13.5,8.33,18.26l.43.53c.29.35.59.73.91,1.11l.46.53a12.72,12.72,0,0,0,4.08,3.09l.68.3A15.9,15.9,0,0,1,44.83,80.94Z"/></g></g></g></svg>