<svg xmlns="http://www.w3.org/2000/svg" xmlns:xlink="http://www.w3.org/1999/xlink" width="184" height="46" viewBox="0 0 184 46"><defs><style>      .cls-1 {        fill: url(#linear-gradient);      }      .cls-2 {        isolation: isolate;        opacity: 0.5;        fill: url(#linear-gradient-2);      }      .cls-3 {        opacity: 0.2;      }      .cls-4 {        fill: url(#linear-gradient-3);      }      .cls-5 {        fill: url(#linear-gradient-4);      }      .cls-6 {        opacity: 0.3;      }      .cls-7 {        fill: url(#linear-gradient-5);      }      .cls-8 {        fill: #d4d7e1;      }      .cls-9 {        fill: url(#radial-gradient);      }      .cls-10 {        fill: url(#linear-gradient-6);      }      .cls-11 {        fill: #3b0064;      }    </style><linearGradient id="linear-gradient" x1="-0.31" y1="608.2" x2="28.01" y2="608.2" gradientTransform="matrix(1, 0, 0, -1, 0, 628.93)" gradientUnits="userSpaceOnUse"><stop offset="0" stop-color="#00a9fd"></stop><stop offset="1" stop-color="#9a00ff"></stop></linearGradient><linearGradient id="linear-gradient-2" x1="2.3" y1="606.08" x2="35.1" y2="606.08" gradientTransform="matrix(1, 0, 0, -1, 0, 628.93)" gradientUnits="userSpaceOnUse"><stop offset="0" stop-color="#fff"></stop><stop offset="0.84" stop-color="#fff"></stop></linearGradient><linearGradient id="linear-gradient-3" x1="36.48" y1="604.78" x2="4.52" y2="624.33" gradientTransform="matrix(1, 0, 0, -1, 0, 628.93)" gradientUnits="userSpaceOnUse"><stop offset="0" stop-color="#a7b0c6"></stop><stop offset="0.46" stop-color="#fafafb"></stop><stop offset="1" stop-color="#acb4ca"></stop></linearGradient><linearGradient id="linear-gradient-4" x1="39.4" y1="607.1" x2="5.45" y2="620.97" gradientTransform="matrix(1, 0, 0, -1, 0, 628.93)" gradientUnits="userSpaceOnUse"><stop offset="0" stop-color="#bbc2d3"></stop><stop offset="0.14" stop-color="#939fba"></stop><stop offset="0.52" stop-color="#f2f4f7"></stop><stop offset="0.66" stop-color="#f2f4f7"></stop><stop offset="1" stop-color="#9da8c1"></stop></linearGradient><linearGradient id="linear-gradient-5" x1="26.01" y1="582.96" x2="16.72" y2="610.31" gradientTransform="matrix(1, 0, 0, -1, 0, 628.93)" gradientUnits="userSpaceOnUse"><stop offset="0" stop-color="#a8b1c7"></stop><stop offset="0.16" stop-color="#d4d7e2"></stop><stop offset="0.42" stop-color="#dadee8"></stop><stop offset="0.76" stop-color="#dfe3eb"></stop><stop offset="1" stop-color="#b6bdcf"></stop></linearGradient><radialGradient id="radial-gradient" cx="-538.2" cy="686.58" r="1" gradientTransform="matrix(5.87, 0, 0, -5.85, 3188.2, 4054.31)" gradientUnits="userSpaceOnUse"><stop offset="0" stop-color="#b3b3b3"></stop><stop offset="1" stop-color="#4d4d4d"></stop></radialGradient><linearGradient id="linear-gradient-6" x1="19.67" y1="583.94" x2="19.67" y2="610.48" gradientTransform="matrix(1, 0, 0, -1, 0, 628.93)" gradientUnits="userSpaceOnUse"><stop offset="0" stop-color="#bbc2d3"></stop><stop offset="0.14" stop-color="#939fba"></stop><stop offset="0.32" stop-color="#dfe3eb"></stop><stop offset="0.66" stop-color="#f2f4f7"></stop><stop offset="1" stop-color="#9da8c1"></stop></linearGradient></defs><g id="Layer_2" data-name="Layer 2"><g id="Layer_1-2" data-name="Layer 1"><g id="logo"><path class="cls-1" d="M41.59,20.73a20.74,20.74,0,0,1-19,20.65c-.61,0-1.22.08-1.84.08A20.76,20.76,0,0,1,0,20.73v-.52A20.82,20.82,0,0,1,40.44,13.9a20.24,20.24,0,0,1,.73,2.67A20.75,20.75,0,0,1,41.59,20.73Z"></path><path class="cls-2" d="M31.92,8.38l-17-.71S4.1,12.35,2.79,15.75c-.38,1-1.59,8.81,2.13,14.48S14.29,39,19.28,37.77s8.39-2.41,13.18-12.29,1.59-14.76,1.59-14.76Z"></path><g class="cls-3"><path d="M32,38.2A20.9,20.9,0,0,1,25.21,41l-.24-.3c-2.09-2.48-3.47-6.5-4.46-9.79a26.78,26.78,0,0,1-1.12-5C24.53,36.83,29.7,38.2,32,38.2Z"></path></g><path class="cls-4" d="M41.45,13.9a12.7,12.7,0,0,1-.28,2.68c-1.51,7.32-9,12.62-15.94,14.87,0,0-1.91-2.93-1.59-5.51s1.8-3.08,3.4-4.11,5.42-3.25,5.42-6.59-4.28-5.15-9.09-5.15S11.29,11.71,0,20.21A20.55,20.55,0,0,1,3.19,9.69,19.76,19.76,0,0,1,8.81,5.87,36.38,36.38,0,0,1,23.74,2.68a28.64,28.64,0,0,1,9.83,1.7C37.92,6,41.45,9,41.45,13.9Z"></path><path class="cls-5" d="M36.18,6.79c-3.7-2.34-9-3.11-12.44-3.11A35.36,35.36,0,0,0,9.24,6.79C5.09,8.61,2.51,10.84,1.12,18.14,9.6,12,16.9,9.08,23.37,9.08c6.05,0,10.08,2.47,10.08,6.16s-3.76,6.11-5.57,7.22l-.3.2-.69.42c-1.28.77-2.06,1.25-2.27,3a7.71,7.71,0,0,0,1.07,4.16c7.46-2.64,14.74-8.6,14.75-16.31A8.17,8.17,0,0,0,36.18,6.79Z"></path><g class="cls-6"><path d="M32.46,15.24c0,3.33-3.82,5.56-5.42,6.59s-3.1,1.54-3.4,4.11,1.59,5.51,1.59,5.51a9.73,9.73,0,0,1-2.58-6.32c.07-3.64,5.1-4.49,7.25-6.9s1.55-5-.93-5.89-7.93-1.78-14.75,1A144.6,144.6,0,0,0,0,20.26v-.05l.56-.39.49-.36.52-.38.5-.36.51-.38,1-.68.48-.32L4.53,17,5,16.71c.25-.17.51-.33.77-.49l.46-.28.41-.25c1.27-.77,2.49-1.44,3.64-2l.41-.2q1-.48,1.86-.87l.67-.28c.78-.32,1.52-.6,2.23-.83l.35-.12h.06l.56-.18.37-.11.32-.09.37-.1.55-.14.65-.14.55-.11.29-.05.24,0c.51-.09,1-.15,1.47-.2h.44l.44,0c.43,0,.84,0,1.23,0C28.18,10.09,32.46,11.89,32.46,15.24Z"></path></g><g class="cls-6"><path d="M41.59,20.73a13.56,13.56,0,0,1-.06,1.56c-3.55,9.07-16.3,9.16-16.3,9.16,6.93-2.22,14.43-7.55,15.94-14.87A20.72,20.72,0,0,1,41.59,20.73Z"></path></g><g class="cls-6"><path d="M26.14,40.77c-.31.08-.62.16-.93.22L25,40.7c-2.09-2.48-3.47-6.5-4.46-9.79-1.62-5.45-1.83-8.37,1.14-10.85,1.24-1,3-2.34,3.35-3.51,0,0,.24,1.71-2.59,4.18C20.49,22.4,20,23.29,20.5,26.5S22.74,36.61,26.14,40.77Z"></path></g><path class="cls-7" d="M32.77,42.73l-.19.19A13.29,13.29,0,0,1,25,46c-4.46,0-7.51-2.78-10.44-8.41a38.7,38.7,0,0,1-4.09-16.92C20.11,16.62,25,16.55,25,16.55c-.38,1.17-2.09,2.47-3.35,3.51-3,2.48-2.79,5.4-1.15,10.85,1,3.29,2.37,7.31,4.46,9.79.23.27.47.56.74.9l.24.27a6.26,6.26,0,0,0,2,1.49,4.59,4.59,0,0,0,4.64-.48Z"></path><path class="cls-8" d="M35.13,35.74C34.52,38.37,32.9,43,29.22,43a5.14,5.14,0,0,1-3.47-1.49A8.82,8.82,0,0,1,25,40.7c.23.27.47.56.74.9l.23.27a6.3,6.3,0,0,0,2,1.49,4.59,4.59,0,0,0,4.64-.48l.22-.15c1.11-1.16,2.64-3.68,4-8.68A21.3,21.3,0,0,1,35.13,35.74Z"></path><path class="cls-9" d="M35.13,35.74C34.52,38.37,32.9,43,29.22,43a5.14,5.14,0,0,1-3.47-1.49,3.38,3.38,0,0,0,4-2.08A20.49,20.49,0,0,0,35.13,35.74Z"></path><path class="cls-10" d="M25,45c-3.87,0-6.63-2.28-9.54-7.86a38,38,0,0,1-4-15.79A56.63,56.63,0,0,1,22.7,17.86c-.41.37-.85.74-1.24,1.06l-.45.36c-3.38,2.84-3.15,6.24-1.46,11.92,1,3.33,2.42,7.5,4.64,10.14l.24.3.51.62.26.29a7,7,0,0,0,2.27,1.72l.38.16A8.7,8.7,0,0,1,25,45Z"></path><path class="cls-11" d="M66.13,11.64A6.77,6.77,0,0,1,71,13.36a6.08,6.08,0,0,1,1.39,2.08,5.92,5.92,0,0,1,.41,2.47A5.89,5.89,0,0,1,71,22.52a7,7,0,0,1-5,1.74H61.65v5.56h-4.5V15a3.35,3.35,0,0,1,3.34-3.36Zm-.52,8.89a3,3,0,0,0,2.06-.69,2.45,2.45,0,0,0,.57-.85,2.34,2.34,0,0,0,.17-1,2.1,2.1,0,0,0-.18-1,2.36,2.36,0,0,0-.58-.82,2.93,2.93,0,0,0-2-.69h-4v5Z"></path><path class="cls-11" d="M94.47,14a9,9,0,0,1,2.12,3.09,8.89,8.89,0,0,1,.7,3.67,9,9,0,0,1-.7,3.66,9.25,9.25,0,0,1-2.12,3.06,10,10,0,0,1-13.81,0,9.37,9.37,0,0,1,0-13.48,10,10,0,0,1,13.81,0ZM91.3,24.6a5.33,5.33,0,0,0,1.14-1.77,5.41,5.41,0,0,0,.36-2.07,5.32,5.32,0,0,0-.36-2.09,5.4,5.4,0,0,0-1.14-1.8,5.28,5.28,0,0,0-7.46,0,5.43,5.43,0,0,0-1.15,1.8,5.14,5.14,0,0,0-.35,2.09,5.25,5.25,0,0,0,9,3.84Z"></path><path class="cls-11" d="M119.07,14a9.13,9.13,0,0,1,2.82,6.76,9.1,9.1,0,0,1-2.82,6.72,10,10,0,0,1-13.81,0,9.25,9.25,0,0,1-2.12-3.06,9,9,0,0,1-.7-3.66A9.13,9.13,0,0,1,105.26,14a10,10,0,0,1,13.81,0Zm-3.18,10.6a5.29,5.29,0,0,0,1.5-3.84,5.32,5.32,0,0,0-.35-2.09,5.43,5.43,0,0,0-1.15-1.8,5.28,5.28,0,0,0-7.46,0,5.25,5.25,0,0,0-1.14,1.8,5.32,5.32,0,0,0-.36,2.09,5.41,5.41,0,0,0,.36,2.07,5.33,5.33,0,0,0,1.14,1.77,5.29,5.29,0,0,0,7.46,0Z"></path><path class="cls-11" d="M141.15,29.83H129.4a1.76,1.76,0,0,1-1.22-.52,1.72,1.72,0,0,1-.5-1.21V11.64h4.47V25.91h9Z"></path><path class="cls-11" d="M161.14,29.83H150.27a3.34,3.34,0,0,1-2.37-1,3.3,3.3,0,0,1-1-2.36V15A3.33,3.33,0,0,1,149,11.9a3.33,3.33,0,0,1,1.29-.25H161V15.5h-9.64v3.4h8.86v3.64h-8.86V26h9.75Z"></path><path class="cls-11" d="M174.87,23.64l-3.78,6.19h-5.31l4.6-7.35a3.31,3.31,0,0,0,0-3.56l-4.55-7.28h5.31l3.73,6.11,3.77-6.11h5.3l-4.55,7.26a3.36,3.36,0,0,0,0,3.56L184,29.83h-5.31Z"></path></g></g></g></svg>